<?xml version="1.0" encoding="UTF-8" standalone="no"?>
<!-- Created with Inkscape (http://www.inkscape.org/) -->

<svg
   width="162.27847mm"
   height="165.80316mm"
   viewBox="0 0 162.27847 165.80316"
   version="1.1"
   id="svg664"
   xmlns="http://www.w3.org/2000/svg"
   xmlns:svg="http://www.w3.org/2000/svg">
  <defs
     id="defs661" />
  <g
     id="layer1"
     transform="translate(-68.731538,-108.5492)">
    <g
       id="g554"
       transform="matrix(0.35277777,0,0,-0.35277777,24.87077,316.28081)">
      <path
         d="M 350.3421,528.8494 C 348.9225,529.6204 347.7688,530.9419 347.3306,533.1628 346.8923,535.3838 347.1693,538.5042 348.6214,548.1924 350.0739,557.8809 352.1506,574.1371 353.465,582.2651 355.1193,590.7478 354.4092,591.3255 355.9603,582.2651 357.3502,574.1453 359.5578,557.8809 361.01,548.1924 362.4625,538.5042 362.7394,535.3838 362.3009,533.1628 361.8629,530.9419 360.7095,529.6204 359.2896,528.8494 356.3986,527.2795 353.2329,527.2795 350.3421,528.8494 Z M 355.1343,526.6528 C 418.3923,526.6528 469.6736,485.8469 469.6736,435.511 469.6736,385.1748 418.3923,344.3686 355.1343,344.3686 291.8764,344.3686 240.5954,385.1748 240.5954,435.511 240.5954,485.8469 291.8764,526.6528 355.1343,526.6528 Z M 341.1283,528.2887 C 342.3827,529.2238 343.2674,530.6709 343.2719,532.9191 343.2764,535.1669 342.4008,538.2167 339.0962,547.6127 335.7918,557.0087 330.6027,572.8184 327.7361,580.6896 324.4646,588.8696 325.0548,589.5269 325.2702,580.3846 325.4635,572.1911 326.4202,555.8499 326.8548,546.099 327.289,536.3481 327.617,533.2311 328.479,531.0899 329.3405,528.9489 330.7354,527.7838 332.2871,527.1953 335.4466,525.9974 338.5746,526.3843 341.1283,528.2887 Z M 377.1476,343.8244 C 378.6996,343.2362 380.0942,342.0711 380.9557,339.9301 381.8174,337.7891 382.146,334.6719 382.5802,324.921 383.0145,315.1701 384.099,298.853 384.3683,290.6606 384.3706,282.0764 385.1836,281.5926 381.9027,290.3559 378.9624,298.2095 373.6429,314.0116 370.3385,323.4073 367.0342,332.8038 366.1586,335.8528 366.1631,338.1012 366.1676,340.3491 367.0523,341.7962 368.3064,342.7313 370.8601,344.6359 373.9881,345.0226 377.1476,343.8244 Z M 323.2497,525.4909 C 324.307,526.5694 324.8997,528.1078 324.4669,530.3293 324.0343,532.5511 322.5756,535.4561 317.4837,544.3319 312.3918,553.2077 304.1904,568.188 299.8273,575.6114 295.0044,583.2896 295.4597,584.0118 297.4507,575.0062 299.2348,566.9354 303.3587,550.9089 305.6842,541.3292 308.0095,531.7492 308.9401,528.7099 310.208,526.7007 311.4754,524.6915 313.0801,523.7124 314.7276,523.3221 318.0821,522.5278 321.0973,523.2949 323.2497,525.4909 Z M 394.7111,347.6849 C 396.3586,347.2946 397.9636,346.3155 399.2306,344.3063 400.4986,342.2971 401.4292,339.258 403.7547,329.6781 406.08,320.0981 410.3249,304.111 412.1847,296.051 413.856,287.5703 414.7532,287.1921 409.8078,295.446 405.3759,302.8428 397.0468,317.7992 391.9547,326.6753 386.8628,335.5515 385.4047,338.4561 384.9721,340.6776 384.539,342.8991 385.1317,344.4378 386.189,345.5161 388.3416,347.7121 391.3569,348.4794 394.7111,347.6849 Z M 305.71,520.3721 C 306.5389,521.5703 306.8175,523.1642 305.947,525.3026 305.0768,527.442 303.0579,530.1258 296.2607,538.2465 289.4635,546.3672 278.3792,560.1223 272.5914,566.9008 266.2988,573.8732 266.6041,574.6436 270.3654,566.0033 273.7361,558.2599 281.003,542.9571 285.2093,533.7918 289.4153,524.6269 290.9398,521.7437 292.5924,519.9199 294.2442,518.0964 296.0237,517.3322 297.7282,517.1547 301.1984,516.7936 304.0226,517.9323 305.71,520.3721 Z M 411.717,353.8395 C 413.4214,353.6623 415.2005,352.8981 416.8525,351.0743 418.5051,349.2505 420.0299,346.3673 424.2359,337.2024 428.4417,328.0374 435.8205,312.7887 439.2635,305.0654 442.6047,296.9031 443.5659,296.6434 437.0374,304.168 431.1865,310.9119 419.9814,324.6273 413.1842,332.748 406.387,340.8687 404.3682,343.5528 403.4979,345.6916 402.6277,347.8303 402.906,349.4239 403.7352,350.6224 405.4224,353.0625 408.2468,354.2006 411.717,353.8395 Z M 289.5554,513.1797 C 290.1373,514.4669 290.0974,516.0756 288.8155,518.0788 287.5334,520.0824 285.0097,522.4802 276.6923,529.6499 268.3755,536.8192 254.7116,549.0167 247.6565,554.9871 240.0642,561.0855 240.2135,561.8843 245.6354,553.8226 250.4942,546.5968 260.6936,532.3932 266.6582,523.868 272.6226,515.3434 274.6981,512.6868 276.69,511.0926 278.682,509.4981 280.5902,508.966 282.3086,509.0043 285.8071,509.0817 288.3711,510.5591 289.5554,513.1797 Z M 427.1451,361.9789 C 428.8632,362.0171 430.7717,361.4848 432.7634,359.8906 434.7556,358.2961 436.8311,355.6397 442.7955,347.1148 448.7598,338.5899 459.0592,324.4538 463.9856,317.2572 468.8977,309.6145 469.8984,309.4778 461.9645,316.0928 454.854,322.0206 441.0782,334.1639 432.7614,341.3333 424.4443,348.5027 421.9203,350.9005 420.6385,352.9043 419.3563,354.9073 419.3164,356.5165 419.898,357.8031 421.0826,360.4238 423.6466,361.9015 427.1451,361.9789 Z M 275.2605,504.2307 C 275.5857,505.5738 275.2336,507.1581 273.5782,508.9799 271.9227,510.8017 268.9634,512.8605 259.3542,518.9216 249.745,524.9826 233.8773,535.3537 225.7481,540.3849 217.0627,545.4771 217.0553,546.2847 223.977,538.986 230.1803,532.4448 243.015,519.6654 250.5628,511.9761 258.1109,504.2866 260.6774,501.9171 262.9548,500.5868 265.2321,499.2565 267.2212,498.9654 268.9112,499.2143 272.3528,499.7208 274.5992,501.4959 275.2605,504.2307 Z M 440.5533,371.7587 C 442.2436,372.0076 444.2321,371.7164 446.5094,370.3861 448.7873,369.0558 451.3535,366.6864 458.9014,358.9968 466.4497,351.3076 479.3695,338.6072 485.634,332.1028 491.9709,325.1557 492.986,325.1438 483.8632,330.7037 475.687,335.6864 459.7194,345.9903 450.11,352.0514 440.5011,358.1121 437.5417,360.1712 435.886,361.993 434.2306,363.8149 433.8791,365.3994 434.2039,366.7422 434.8653,369.4771 437.1117,371.2521 440.5533,371.7587 Z M 262.62,493.3757 C 262.6744,494.7426 262.0125,496.2631 260.0161,497.8539 258.0199,499.445 254.6889,501.1061 243.9975,505.8833 233.3064,510.6606 215.5788,518.9074 206.553,522.8541 196.9659,526.7906 196.7984,527.5877 205.0821,521.25 212.5057,515.5705 227.7156,504.5644 236.6952,497.9203 245.6745,491.2758 248.6789,489.2584 251.1921,488.2311 253.7048,487.2036 255.7267,487.1659 257.3461,487.6243 260.6437,488.5574 262.51,490.5921 262.62,493.3757 Z M 452.1311,383.3396 C 453.7508,383.798 455.7725,383.7603 458.2854,382.733 460.7983,381.7057 463.8027,379.6883 472.782,373.0439 481.7614,366.3998 497.0404,355.4827 504.517,349.8469 512.1539,343.7836 513.1582,343.8992 503.0461,348.243 493.9838,352.1356 476.1714,360.3033 465.48,365.0805 454.7886,369.858 451.4576,371.5191 449.4611,373.1102 447.4647,374.7008 446.8031,376.2213 446.8575,377.5884 446.9675,380.3717 448.8338,382.4067 452.1311,383.3396 Z M 252.4348,481.2704 C 252.2211,482.6273 251.2701,484.0472 248.9873,485.3718 246.7043,486.6965 243.0893,487.9253 231.5945,491.3215 220.0995,494.7177 200.9764,500.671 191.289,503.4526 181.0497,506.1552 180.7282,506.9214 190.1494,501.6861 198.5927,496.9942 215.7684,488.0041 225.9371,482.5517 236.1056,477.0989 239.4675,475.4781 242.1507,474.7742 244.834,474.0701 246.8381,474.2833 248.3487,474.9364 251.424,476.2658 252.8697,478.5069 252.4348,481.2704 Z M 461.143,396.021 C 462.6536,396.6741 464.6577,396.887 467.3407,396.1831 470.0239,395.479 473.3861,393.8581 483.5546,388.4057 493.7233,382.9533 510.9491,374.0593 519.4363,369.4175 528.1648,364.3722 529.1348,364.6111 518.2968,367.6507 508.5839,370.3748 489.3919,376.2394 477.8972,379.6356 466.4024,383.0318 462.7874,384.2609 460.5043,385.5852 458.2216,386.9096 457.2706,388.33 457.0569,389.687 456.622,392.4505 458.0677,394.6912 461.143,396.021 Z M 244.6761,467.9175 C 244.1976,469.2314 242.9785,470.5149 240.4627,471.5379 237.9464,472.5609 234.1341,473.3229 222.1115,475.2408 210.0889,477.159 190.0281,480.6493 179.9124,482.186 169.2666,483.5761 168.7978,484.2924 179.1351,480.2992 188.3996,476.7199 207.1363,469.9871 218.2544,465.8729 229.3727,461.7584 233.013,460.5775 235.802,460.2175 238.5907,459.8575 240.5279,460.3181 241.8908,461.1518 244.6656,462.8489 245.651,465.243 244.6761,467.9175 Z M 467.6165,409.8002 C 468.9791,410.6339 470.9169,411.0945 473.7056,410.7345 476.4946,410.3745 480.1346,409.1936 491.2526,405.0794 502.3709,400.9649 521.1383,394.3332 530.4362,390.8089 540.0519,386.9172 540.9624,387.2744 529.6595,388.9222 519.5296,390.3987 499.4186,393.7932 487.3961,395.7111 475.3735,397.6294 471.5606,398.3913 469.0449,399.4143 466.5288,400.4368 465.3096,401.7206 464.8311,403.0342 463.8563,405.7089 464.8419,408.1031 467.6165,409.8002 Z M 239.654,453.7806 C 238.9224,455.0185 237.4651,456.1342 234.779,456.8304 232.0923,457.5268 228.1768,457.8035 215.9252,458.1978 203.6733,458.5921 183.1731,459.5366 172.8794,459.7923 162.0913,459.8368 161.4875,460.4859 172.4839,457.8316 182.3389,455.4527 202.1703,451.1412 213.9619,448.4645 225.7534,445.7883 229.5811,445.0762 232.4066,445.0686 235.2317,445.0609 237.0543,445.7577 238.2358,446.7509 240.6421,448.7734 241.1436,451.2609 239.654,453.7806 Z M 471.2888,424.1979 C 472.47,425.1912 474.2929,425.8879 477.1179,425.88 479.9432,425.8726 483.7711,425.1606 495.5627,422.4844 507.354,419.8079 527.1959,415.5999 537.0732,413.2794 547.3366,410.6353 548.1658,411.1016 536.6781,411.3187 526.3821,411.5134 505.851,412.3568 493.5994,412.7508 481.3478,413.1451 477.432,413.422 474.7456,414.1185 472.0595,414.8147 470.6019,415.9301 469.8706,417.168 468.3807,419.688 468.8824,422.1751 471.2888,424.1979 Z M 237.4628,439.0376 C 236.4939,440.1672 234.8331,441.085 232.0421,441.434 229.2514,441.7829 225.3297,441.5624 213.1543,440.4073 200.9786,439.2522 180.5494,437.6001 170.3347,436.5544 159.6742,435.2383 158.9488,435.8032 170.3347,434.5688 180.5389,433.4627 200.9784,431.7055 213.154,430.5492 225.3291,429.3935 229.2506,429.1727 232.0415,429.522 234.8328,429.8703 236.4936,430.7879 237.4628,431.9178 239.4354,434.2181 239.4357,436.737 237.4628,439.0376 Z M 472.062,439.0311 C 473.0306,440.1604 474.692,441.0785 477.4827,441.4272 480.274,441.7758 484.1952,441.5553 496.3706,440.3993 508.5459,439.2434 528.9752,437.5899 539.1899,436.5439 549.8501,435.2272 550.5758,435.7925 539.1899,434.5583 528.9854,433.4525 508.5459,431.6964 496.3703,430.5413 484.1946,429.3862 480.2737,429.1659 477.4822,429.5146 474.6915,429.8635 473.0304,430.7811 472.0618,431.911 470.0889,434.2116 470.0891,436.7307 472.062,439.0311 Z M 238.193,424.542 C 237.0161,425.5387 235.1965,426.2409 232.3715,426.2414 229.5459,426.2426 225.7149,425.5415 213.9111,422.8999 202.1071,420.2586 182.2459,416.109 172.3581,413.8177 162.0819,411.2036 161.2553,411.6725 172.7442,411.8559 183.0404,412.0203 203.5755,412.8029 215.8288,413.1609 228.0824,413.5192 231.999,413.7846 234.6888,414.4728 237.3786,415.1614 238.8404,416.2725 239.5783,417.5082 241.0798,420.0236 240.5897,422.5122 238.193,424.542 Z M 469.9636,453.4418 C 470.7011,454.6772 472.1635,455.7886 474.853,456.4769 477.5426,457.1654 481.4595,457.4305 493.7131,457.7888 505.9664,458.1471 526.4711,459.0306 536.766,459.2563 547.5538,459.2687 548.1609,459.9159 537.152,457.2944 527.286,454.9445 507.4347,450.6914 495.631,448.0498 483.8272,445.4082 479.9959,444.7074 477.1706,444.7083 474.3454,444.7086 472.5258,445.411 471.3491,446.4077 468.9522,448.4373 468.462,450.9261 469.9636,453.4418 Z M 241.8792,409.9042 C 240.5177,410.739 238.5811,411.2014 235.7918,410.8439 233.0022,410.4865 229.3605,409.3089 218.2363,405.2049 207.112,401.1007 188.335,394.4863 179.032,390.9708 169.4109,387.0876 168.501,387.4453 179.8064,389.0829 189.938,390.5507 210.054,393.9265 222.0795,395.8333 234.1049,397.7402 237.9183,398.4987 240.4358,399.5195 242.9532,400.54 244.1744,401.8224 244.6551,403.1357 245.634,405.8096 244.6517,408.2043 241.8792,409.9042 Z M 464.9034,467.8172 C 465.3845,469.1302 466.6054,470.4129 469.1225,471.4333 471.64,472.4541 475.4537,473.2123 487.4791,475.1195 499.5043,477.0264 519.5699,480.4985 529.6884,482.0261 540.3359,483.4057 540.8056,484.122 530.4626,480.1382 521.193,476.5677 502.4466,469.8519 491.3223,465.7479 480.1983,461.6439 476.5564,460.4661 473.7671,460.1086 470.9778,459.7512 469.0409,460.2138 467.6794,461.0486 464.9068,462.7485 463.9249,465.1432 464.9034,467.8172 Z M 248.2767,396.2157 C 246.7681,396.8714 244.7643,397.0879 242.0793,396.3889 239.394,395.6899 236.0273,394.075 225.843,388.641 215.6587,383.2072 198.4071,374.3447 189.9062,369.7183 181.1636,364.6894 180.1945,364.93 191.0409,367.9495 200.7615,370.656 219.9705,376.4854 231.4752,379.8609 242.9799,383.2362 246.5983,384.4585 248.8853,385.7788 251.1717,387.0989 252.127,388.5174 252.3441,389.874 252.7872,392.6367 251.3477,394.8803 248.2767,396.2157 Z M 457.2298,481.0836 C 457.4475,482.4405 458.4025,483.859 460.6892,485.1791 462.9759,486.4995 466.5943,487.7218 478.099,491.097 489.6037,494.4722 508.7441,500.3906 518.4394,503.1544 528.6866,505.8386 529.0101,506.6039 519.5738,501.3859 511.1169,496.7093 493.9152,487.7507 483.7311,482.3169 473.5468,476.8829 470.1804,475.268 467.4949,474.569 464.8099,473.87 462.8061,474.0866 461.2978,474.7422 458.2261,476.0776 456.787,478.3209 457.2298,481.0836 Z M 257.2534,383.5154 C 255.6354,383.9769 253.6138,383.9428 251.098,382.9198 248.5817,381.8971 245.5719,379.885 236.5736,373.2571 227.575,366.6288 212.2656,355.7392 204.7725,350.117 197.1193,344.0676 196.1147,344.1849 206.2389,348.5103 215.3126,352.3867 233.1482,360.5224 243.8532,365.2807 254.5583,370.0386 257.8938,371.6938 259.8948,373.2812 261.8952,374.8683 262.5616,376.3874 262.5111,377.7548 262.4088,380.5384 260.5487,382.5768 257.2534,383.5154 Z M 447.0775,493.2102 C 447.0267,494.5774 447.6932,496.0964 449.6939,497.6838 451.6948,499.2712 455.0304,500.9264 465.7351,505.6841 476.4404,510.4423 494.191,518.6571 503.2281,522.5873 512.8262,526.5068 512.996,527.3031 504.6942,520.9807 497.2547,515.3145 482.0134,504.3359 473.0151,497.7079 464.0168,491.0797 461.0066,489.0677 458.4903,488.0449 455.9749,487.0222 453.9532,486.9882 452.3349,487.4494 449.0399,488.3879 447.1795,490.4263 447.0775,493.2102 Z M 268.8086,371.9052 C 267.1191,372.1569 265.1295,371.8692 262.8485,370.5426 260.5671,369.2163 257.9947,366.8513 250.4259,359.1748 242.8577,351.498 229.9034,338.8198 223.6215,332.3256 217.266,325.3898 216.2509,325.3793 225.3886,330.9239 233.5779,335.8925 249.5735,346.1695 259.1989,352.2141 268.8242,358.2587 271.7889,360.3127 273.4495,362.1317 275.1097,363.9504 275.4658,365.5344 275.1446,366.878 274.4906,369.6137 272.2487,371.3927 268.8086,371.9052 Z M 434.4568,504.0955 C 434.1353,505.4391 434.4914,507.0229 436.1519,508.8419 437.8124,510.6611 440.7772,512.7148 450.4025,518.7594 460.0278,524.804 475.9237,535.1485 484.0665,540.1658 492.7652,545.243 492.7748,546.0508 485.8336,538.7635 479.6127,532.2328 466.7437,519.4752 459.1752,511.7987 451.6064,504.1225 449.034,501.7572 446.7526,500.4309 444.4719,499.1046 442.482,498.8166 440.7925,499.0686 437.3524,499.5811 435.111,501.3595 434.4568,504.0955 Z M 282.2528,362.0636 C 280.5347,362.1036 278.6253,361.5735 276.6308,359.9819 274.6355,358.3896 272.5554,355.7356 266.5755,347.2177 260.5952,338.6996 250.27,324.5754 245.3304,317.3845 240.404,309.7477 239.4034,309.6122 247.3495,316.2175 254.471,322.1374 268.2689,334.2645 276.5988,341.4243 284.9289,348.584 287.4574,350.979 288.743,352.9811 290.029,354.983 290.0718,356.5916 289.4922,357.8797 288.3127,360.5012 285.7513,361.982 282.2528,362.0636 Z M 420.1197,513.104 C 419.5406,514.3918 419.5834,516.0008 420.8692,518.0023 422.1547,520.0047 424.6832,522.3994 433.0131,529.5591 441.3436,536.7189 455.0295,548.9008 462.0957,554.8626 469.6988,560.9523 469.5514,561.7514 464.1148,553.6956 459.2426,546.476 449.0169,532.2841 443.0367,523.766 437.0567,515.2482 434.9764,512.5941 432.9814,511.0021 430.9866,509.4102 429.0775,508.8798 427.3594,508.9201 423.8609,509.002 421.2992,510.482 420.1197,513.104 Z M 297.5139,353.9738 C 295.8089,353.8006 294.0265,353.0404 292.3679,351.2208 290.7085,349.4007 289.1733,346.5213 284.9335,337.3665 280.6931,328.2111 273.2584,312.9797 269.7866,305.2644 266.4153,297.1103 265.4529,296.8523 272.0092,304.3621 277.8849,311.0919 289.1412,324.7812 295.9685,332.8858 302.7957,340.9906 304.8242,343.6696 305.7024,345.8066 306.5808,347.9434 306.3084,349.5376 305.4841,350.7381 303.8054,353.1821 300.9855,354.3267 297.5139,353.9738 Z M 404.1374,520.257 C 403.3128,521.4572 403.0404,523.0517 403.9183,525.1884 404.7965,527.3254 406.8252,530.0045 413.6528,538.109 420.4797,546.2138 431.6151,559.9429 437.4278,566.7077 443.7465,573.6654 443.444,574.4364 439.6507,565.8052 436.2508,558.0697 428.9275,542.7839 424.6875,533.6289 420.4477,524.4735 418.9122,521.5941 417.253,519.7742 415.5945,517.9547 413.8121,517.1944 412.1073,517.0212 408.6354,516.668 405.8155,517.8132 404.1374,520.257 Z M 314.9575,347.6463 C 313.3106,347.2546 311.7076,346.2738 310.443,344.2635 309.1785,342.2529 308.2524,339.2127 305.9419,329.6307 303.6311,320.0485 299.4109,304.0574 297.5638,295.9951 295.905,287.513 295.0087,287.1343 299.9412,295.3928 304.3621,302.794 312.6677,317.7587 317.7459,326.6396 322.8245,335.5206 324.2784,338.4266 324.7075,340.6487 325.137,342.8705 324.5417,344.4083 323.483,345.4858 321.3272,347.6798 318.3109,348.4443 314.9575,347.6463 Z M 386.1448,525.5218 C 385.0858,526.5995 384.4908,528.1373 384.9202,530.3591 385.3494,532.5814 386.8033,535.4875 391.8815,544.3685 396.9601,553.2491 405.138,568.2373 409.4898,575.6649 414.3008,583.3483 413.8447,584.07 411.8675,575.0626 410.0956,566.9901 405.9969,550.9593 403.6861,541.3774 401.3751,531.7948 400.4493,528.7547 399.1847,526.7446 397.9205,524.734 396.3175,523.7535 394.6706,523.3615 391.3169,522.5638 388.3005,523.328 386.1448,525.5218 Z M 332.4461,343.8156 C 330.8947,343.2268 329.5006,342.0612 328.6406,339.9199 327.7803,337.7784 327.4537,334.6611 327.026,324.9099 326.598,315.1587 325.5248,298.8414 325.2603,290.649 325.264,282.0645 324.4513,281.5804 327.7261,290.3451 330.6611,298.2002 335.9704,314.0042 339.2688,323.4016 342.5669,332.799 343.4406,335.8488 343.4346,338.097 343.4287,340.3451 342.5428,341.7917 341.2879,342.7262 338.7328,344.6297 335.6045,345.0155 332.4461,343.8156 Z M 368.3435,528.2949 C 367.0886,529.2298 366.2031,530.6763 366.1971,532.9242 366.1909,535.1723 367.0648,538.2224 370.3629,547.6198 373.6613,557.0172 378.8396,572.8292 381.7012,580.7013 384.9673,588.8826 384.3768,589.54 384.1673,580.3974 383.9794,572.2038 383.0335,555.8624 382.6054,546.1112 382.1777,536.36 381.8514,533.2431 380.9911,531.1015 380.1308,528.9602 378.737,527.7946 377.1856,527.2055 374.0272,526.0062 370.8986,526.3914 368.3435,528.2949 Z M 350.3421,342.1718 C 348.9225,341.401 347.7688,340.0792 347.3306,337.8586 346.8923,335.6374 347.1693,332.5175 348.6214,322.8287 350.0739,313.1405 352.1506,296.8843 353.465,288.7563 355.1193,280.2736 354.4092,279.6959 355.9603,288.7563 357.3502,296.8761 359.5578,313.1405 361.01,322.8287 362.4625,332.5175 362.7394,335.6374 362.3009,337.8586 361.8629,340.0792 360.7095,341.401 359.2896,342.1718 356.3986,343.7416 353.2329,343.7416 350.3421,342.1718"
         style="fill:#ffed00;fill-opacity:1;fill-rule:evenodd;stroke:none"
         id="path14" />
      <path
         d="M 354.7621,518.2279 C 412.9875,518.2279 460.1886,480.7879 460.1886,434.6033 460.1886,388.419 412.9875,350.979 354.7621,350.979 296.5368,350.979 249.3357,388.419 249.3357,434.6033 249.3357,480.7879 296.5368,518.2279 354.7621,518.2279 Z M 354.7621,510.1206 C 408.2306,510.1206 451.5755,477.3266 451.5755,436.873 451.5755,396.4195 408.2306,363.6255 354.7621,363.6255 301.2936,363.6255 257.9488,396.4195 257.9488,436.873 257.9488,477.3266 301.2936,510.1206 354.7621,510.1206"
         style="fill:#e3000f;fill-opacity:1;fill-rule:evenodd;stroke:none"
         id="path16" />
      <path
         d="M 354.7621,411.4777 C 433.0905,411.4777 496.5883,359.8586 496.5883,296.1825 496.5883,232.5064 433.0905,180.8872 354.7621,180.8872 276.4338,180.8872 212.9363,232.5064 212.9363,296.1825 212.9363,359.8586 276.4338,411.4777 354.7621,411.4777"
         style="fill:#a1d9f8;fill-opacity:1;fill-rule:evenodd;stroke:none"
         id="path18" />
      <path
         d="M 354.7621,414.6058 C 394.4477,414.6058 430.4242,401.4904 456.5075,380.2867 482.885,358.8435 499.2001,329.114 499.2001,296.1825 499.2001,263.2507 482.885,233.5215 456.5075,212.0783 430.4242,190.8746 394.4477,177.7592 354.7621,177.7592 315.0765,177.7592 279.1001,190.8746 253.0171,212.0783 226.6393,233.5215 210.3242,263.2507 210.3242,296.1825 210.3242,329.114 226.6393,358.8435 253.0171,380.2867 279.1001,401.4904 315.0765,414.6058 354.7621,414.6058 Z M 357.3383,408.329 V 332.1978 C 376.5764,332.9093 395.7593,337.0601 414.7829,344.6413 419.2733,346.4306 423.7557,348.4123 428.2291,350.5853 426.8137,353.2717 425.2949,355.953 423.671,358.6286 413.9269,374.6835 400.4447,390.5209 383.201,406.0037 374.8314,407.4052 366.1863,408.1995 357.3383,408.329 Z M 393.8655,403.8565 C 407.9673,390.2318 419.286,376.3315 427.8368,362.2433 429.7017,359.1706 431.4353,356.0882 433.0383,352.9973 442.1086,357.6895 451.1395,363.172 460.1188,369.4436 458.0229,371.399 455.8456,373.2965 453.5892,375.1308 437.214,388.4431 416.7609,398.4599 393.8655,403.8565 Z M 464.3606,365.2911 C 454.8609,358.5535 445.2925,352.6778 435.6692,347.6659 443.1464,331.7091 447.1631,315.5355 447.7402,299.2671 H 493.9226 C 493.0855,324.1131 482.1715,346.9833 464.3606,365.2911 Z M 493.9226,293.0978 H 447.7402 C 447.1631,276.8295 443.1467,260.6559 435.6692,244.6991 445.2925,239.6874 454.8609,233.8121 464.3609,227.0741 482.171,245.3822 493.0858,268.2516 493.9226,293.0978 Z M 460.1188,222.9214 C 451.1395,229.193 442.1086,234.6755 433.0383,239.3677 431.4351,236.2768 429.7017,233.1944 427.8368,230.1216 419.286,216.0334 407.9673,202.1329 393.8655,188.5085 416.7609,193.9056 437.214,203.9219 453.5892,217.2342 455.8456,219.0685 458.0232,220.9654 460.1188,222.9214 Z M 383.201,186.3612 C 400.4447,201.8441 413.9269,217.6815 423.671,233.7364 425.2949,236.412 426.8137,239.0933 428.2291,241.7797 423.7557,243.9527 419.273,245.9344 414.7829,247.7237 395.7593,255.3049 376.5764,259.4557 357.3383,260.1672 V 184.036 C 366.1863,184.1658 374.832,184.9589 383.201,186.3612 Z M 352.1863,184.036 V 260.1672 C 332.9478,259.4557 313.7652,255.3049 294.7414,247.7237 290.251,245.9344 285.7686,243.9527 281.2955,241.7797 282.7106,239.0933 284.2294,236.412 285.8536,233.7364 295.5977,217.6815 309.0796,201.8441 326.3236,186.3612 334.6929,184.9598 343.3382,184.1655 352.1863,184.036 Z M 315.6588,188.5085 C 301.557,202.1329 290.2382,216.0334 281.6878,230.1216 279.8229,233.1944 278.0892,236.2768 276.4862,239.3677 267.4157,234.6755 258.385,229.193 249.4057,222.9214 251.5017,220.9657 253.679,219.0685 255.9351,217.2342 272.3105,203.9219 292.7633,193.9048 315.6588,188.5085 Z M 245.1637,227.0738 C 254.6637,233.8115 264.2318,239.6871 273.8554,244.6991 266.3779,260.6559 262.3612,276.8295 261.7841,293.0978 H 215.602 C 216.4388,268.2516 227.353,245.3814 245.1637,227.0738 Z M 215.602,299.2671 H 261.7841 C 262.3612,315.5355 266.3776,331.7091 273.8554,347.6659 264.2318,352.6775 254.6634,358.5529 245.1634,365.2909 227.3533,346.9827 216.4388,324.1131 215.602,299.2671 Z M 249.4057,369.4436 C 258.385,363.172 267.4157,357.6895 276.4862,352.9973 278.0892,356.0882 279.8229,359.1706 281.6878,362.2433 290.2382,376.3315 301.557,390.2318 315.6588,403.8565 292.7636,398.4593 272.3105,388.4431 255.9351,375.1308 253.679,373.2965 251.5014,371.3995 249.4057,369.4436 Z M 326.3236,406.0037 C 309.0796,390.5209 295.5977,374.6835 285.8536,358.6286 284.2294,355.953 282.7108,353.2717 281.2955,350.5853 285.7686,348.4123 290.2513,346.4306 294.7414,344.6413 313.7652,337.0601 332.9478,332.9093 352.1863,332.1978 V 408.329 C 343.3382,408.1992 334.6926,407.406 326.3236,406.0037 Z M 357.3383,326.0494 V 299.2671 H 442.603 C 442.0193,314.6596 438.1251,330.0273 430.8987,345.2542 426.0762,342.8895 421.2405,340.7411 416.393,338.8096 396.845,331.0194 377.1244,326.7629 357.3383,326.0494 Z M 357.3383,293.0978 V 266.3155 C 377.1244,265.602 396.845,261.3455 416.393,253.5554 421.2405,251.6236 426.0762,249.4749 430.8987,247.1108 438.1251,262.3377 442.0193,277.7054 442.603,293.0978 Z M 352.1863,266.3155 V 293.0978 H 266.9213 C 267.5049,277.7054 271.3995,262.3377 278.6258,247.1108 283.4481,249.4755 288.284,251.6236 293.1316,253.5554 312.6796,261.3455 332.3999,265.602 352.1863,266.3155 Z M 352.1863,299.2671 V 326.0494 C 332.3999,326.7629 312.6796,331.0194 293.1316,338.8096 288.284,340.7411 283.4481,342.8898 278.6258,345.2542 271.3992,330.0273 267.5052,314.6596 266.9213,299.2671 Z"
         style="fill:#ffffff;fill-opacity:1;fill-rule:nonzero;stroke:none"
         id="path20" />
      <g
         id="g22"
         transform="scale(0.72702,0.87053)">
        <path
           d="M 375.4661,374.9085 341.2159,271.1582 H 474.4661 L 465.7161,264.9081 H 487.9661 V 341.7676 L 385.9659,386.4087 Z"
           style="fill:#000000;fill-opacity:1;fill-rule:evenodd;stroke:#000000;stroke-width:2.8346;stroke-linecap:round;stroke-linejoin:round;stroke-miterlimit:22.9256;stroke-dasharray:none;stroke-opacity:1"
           id="path24" />
      </g>
      <g
         id="g26"
         transform="scale(-0.72702,0.87053)">
        <path
           d="M -600.4661,374.9085 -634.7163,271.1582 H -501.4664 L -510.2161,264.9081 H -487.9661 V 341.7676 L -589.966,386.4087 Z"
           style="fill:#000000;fill-opacity:1;fill-rule:evenodd;stroke:#000000;stroke-width:2.8346;stroke-linecap:round;stroke-linejoin:round;stroke-miterlimit:22.9256;stroke-dasharray:none;stroke-opacity:1"
           id="path28" />
      </g>
      <g
         id="g30"
         transform="scale(0.72702,0.87053)">
        <path
           d="M 474.4661,271.1582 487.9661,277.0651 V 282.4294 L 482.8499,300.9294 433.6194,315.3146 366.9661,292.1584 343.1375,271.8459 421.1192,272.065 C 436.9167,281.6867 454.6687,281.5364 474.4661,271.1582 Z"
           style="fill:#367fbb;fill-opacity:1;fill-rule:evenodd;stroke:#000000;stroke-width:2.126;stroke-linecap:butt;stroke-linejoin:miter;stroke-miterlimit:22.9256;stroke-dasharray:none;stroke-opacity:1"
           id="path32" />
      </g>
      <g
         id="g34"
         transform="scale(-0.72702,0.87053)">
        <path
           d="M -501.4664,271.1582 -487.9661,277.0651 V 282.4294 L -493.0824,300.9294 -542.3131,315.3146 -608.9664,292.1584 -632.795,271.8459 -554.813,272.065 C -539.0155,281.6867 -521.2633,281.5364 -501.4664,271.1582 Z"
           style="fill:#367fbb;fill-opacity:1;fill-rule:evenodd;stroke:#000000;stroke-width:2.126;stroke-linecap:butt;stroke-linejoin:miter;stroke-miterlimit:22.9256;stroke-dasharray:none;stroke-opacity:1"
           id="path36" />
      </g>
      <g
         id="g38"
         transform="scale(0.72702,0.87053)">
        <path
           d="M 390.4662,394.4086 376.001,374.9607 343.1375,271.8459 C 353.291,275.902 359.4821,283.0972 366.9661,292.1584 Z"
           style="fill:#79bede;fill-opacity:1;fill-rule:evenodd;stroke:#000000;stroke-width:2.126;stroke-linecap:butt;stroke-linejoin:round;stroke-miterlimit:22.9256;stroke-dasharray:none;stroke-opacity:1"
           id="path40" />
      </g>
      <g
         id="g42"
         transform="scale(-0.72702,0.87053)">
        <path
           d="M -585.466,394.4086 -599.9315,374.9607 -632.795,271.8459 C -622.6415,275.902 -616.4504,283.0972 -608.9664,292.1584 Z"
           style="fill:#79bede;fill-opacity:1;fill-rule:evenodd;stroke:#000000;stroke-width:2.126;stroke-linecap:butt;stroke-linejoin:round;stroke-miterlimit:22.9256;stroke-dasharray:none;stroke-opacity:1"
           id="path44" />
      </g>
      <g
         id="g46"
         transform="scale(0.72702,0.87053)">
        <path
           d="M 487.9661,281.7363 C 446.3433,326.3196 397.5953,280.2008 366.9661,292.1584 L 390.4662,394.4086 C 447.9664,378.3025 461.2158,421.1966 487.9661,371.59 Z"
           style="fill:#ffffff;fill-opacity:1;fill-rule:evenodd;stroke:#000000;stroke-width:2.126;stroke-linecap:butt;stroke-linejoin:miter;stroke-miterlimit:22.9256;stroke-dasharray:none;stroke-opacity:1"
           id="path48" />
      </g>
      <g
         id="g50"
         transform="scale(-0.72702,0.87053)">
        <path
           d="M -487.9661,281.7363 C -529.5889,326.3196 -578.3366,280.2008 -608.9664,292.1584 L -585.466,394.4086 C -527.9658,378.3025 -514.7161,421.1966 -487.9661,371.59 Z"
           style="fill:#ffffff;fill-opacity:1;fill-rule:evenodd;stroke:#000000;stroke-width:2.126;stroke-linecap:butt;stroke-linejoin:miter;stroke-miterlimit:22.9256;stroke-dasharray:none;stroke-opacity:1"
           id="path52" />
      </g>
      <g
         id="g54"
         transform="scale(0.65,1)">
        <path
           d="M 545.7878,358.7698 C 565.3426,358.7698 584.8974,358.7698 604.4519,358.7698 603.2846,354.136 589.8098,350.7843 572.0754,350.5088 566.6321,346.4589 559.4077,344.8548 550.4054,343.9346 V 340.7343 C 550.9117,340.7717 551.4222,340.8086 551.9395,340.8452 569.196,341.5836 590.6092,344.6889 604.1035,351.2761 619.9166,358.558 622.8995,371.8774 604.0259,378.7106 591.3689,383.2931 572.0698,384.0248 557.3701,379.8502 L 553.9167,373.748 C 548.6326,369.1114 540.8736,367.554 533.6932,365.5511 533.4267,369.1253 534.6377,373.2585 536.9295,377.5311 538.1382,380.7969 542.8125,382.7106 550.9536,383.2747 567.2832,389.4823 592.4565,387.813 607.0014,382.754 628.2822,375.3524 633.8565,360.21 608.4893,348.0894 591.7005,340.3579 570.9059,338.3864 552.9866,337.1233 552.1139,337.062 551.2527,336.9983 550.4054,336.9336 V 325.5143 C 557.8268,324.3447 564.6421,323.1434 564.9602,320.4085 566.3639,315.9028 559.1656,314.3194 551.6887,313.3431 551.2671,313.3063 550.8388,313.2663 550.4054,313.2241 V 310.593 C 554.8776,306.6633 573.465,308.4843 573.1588,303.9948 564.0352,303.9948 554.9117,303.9948 545.7878,303.9948 536.6648,303.9948 527.5406,303.9948 518.417,303.9948 518.1109,308.4843 536.6982,306.6633 541.1704,310.593 V 312.0806 C 537.2521,311.5057 533.3635,310.8325 529.9951,310.1564 532.9967,312.1821 537.0599,313.3556 541.1704,314.1692 V 322.7757 C 529.1646,324.2375 519.2708,326.7575 520.16,331.9126 521.0311,336.4432 528.5554,338.5658 541.1704,339.9205 V 343.9346 C 532.1682,344.8548 524.9432,346.4589 519.5004,350.5088 501.7663,350.7843 488.2918,354.136 487.1242,358.7698 506.679,358.7698 526.2335,358.7698 545.7878,358.7698 Z M 550.4054,321.6617 V 315.6508 C 555.4199,316.4247 558.97,317.2453 558.2438,319.477 557.983,320.2795 554.8623,321.0131 550.4054,321.6617 Z M 541.1704,326.8984 V 336.0609 C 533.1467,335.105 527.7209,333.7449 527.4071,331.5129 527.1755,329.8635 533.7235,327.9484 541.1704,326.8984"
           style="fill:#134094;fill-opacity:1;fill-rule:evenodd;stroke:none"
           id="path56" />
      </g>
      <path
         d="M 419.5284,494.8336 C 420.6144,493.8659 421.7318,492.8987 422.8174,491.9312 290.6864,469.9559 120.2822,362.8145 142.6859,251.8268 157.7577,177.1605 221.4598,168.8323 243.7795,155.9443 241.5127,153.6639 239.3093,151.5214 237.1059,149.3101 213.9239,162.6129 148.0122,170.6159 131.7334,247.6809 107.6689,361.6027 283.6616,472.3055 419.5284,494.8336 Z M 425.4678,489.6505 C 426.5535,488.6833 427.6712,487.7155 428.7886,486.7481 303.395,465.7402 143.0002,365.0306 162.419,259.2901 175.3379,188.9444 235.0942,180.0961 255.8815,167.9683 253.6143,165.7225 251.3472,163.442 249.1441,161.2998 227.5588,173.8769 165.5847,182.3992 151.4667,255.1439 130.3815,363.7908 296.3381,468.0553 425.4678,489.6505 Z M 431.407,484.4679 C 432.5244,483.5004 433.6104,482.5329 434.7278,481.5652 316.0718,461.5251 165.7723,367.2442 182.1526,266.7189 192.9084,200.7119 248.7609,191.395 267.8876,179.8889 265.6843,177.7467 263.4491,175.5009 261.2458,173.2893 241.1932,185.1409 183.1584,194.1797 171.2001,262.6072 153.1236,366.0437 309.0149,463.8402 431.407,484.4679 Z M 437.3782,479.2847 C 438.4636,478.3173 439.5813,477.3501 440.699,476.4172 328.7803,457.3094 188.5357,369.4538 201.918,274.2511 210.5878,212.5743 262.4275,202.6933 280.0216,191.9823 277.7224,189.667 275.5193,187.5251 273.2839,185.2792 254.8278,196.4049 200.7711,205.9931 190.9338,270.0706 175.8631,368.2349 321.7235,459.6245 437.3782,479.2847"
         style="fill:#e3000f;fill-opacity:1;fill-rule:evenodd;stroke:none"
         id="path58" />
      <path
         d="M 289.2628,494.9161 C 288.1774,493.9481 287.06,492.9803 285.9749,492.0129 418.0034,470.0667 588.4495,362.8508 565.9929,251.7477 550.9125,177.1376 487.1143,168.8715 464.8646,155.9458 467.1312,153.665 469.3337,151.5217 471.5365,149.3101 494.6797,162.616 560.6504,170.6012 576.9422,247.6352 601.0526,361.6396 425.0262,472.4169 289.2628,494.9161 Z M 283.3251,489.7318 C 282.2397,488.7641 281.1226,487.7963 280.0054,486.8286 405.3305,465.8505 565.7304,365.0678 546.2654,259.2471 533.3318,188.9328 473.4836,180.138 452.7663,167.9729 455.0329,165.7264 457.2992,163.4454 459.5017,161.3027 481.081,173.8826 543.0827,182.3862 557.2145,255.1 578.3462,363.8279 412.3534,468.1661 283.3251,489.7318 Z M 277.3877,484.5475 C 276.2705,483.5801 275.1851,482.6123 274.068,481.6446 392.6574,461.634 542.9582,367.2825 526.5377,266.7124 515.7612,200.7116 459.885,191.3703 440.7636,179.8963 442.9664,177.7535 445.2009,175.5071 447.4035,173.2949 467.4504,185.1148 525.513,194.1695 537.4868,262.565 555.6093,366.0812 399.6802,463.9496 277.3877,484.5475 Z M 271.4182,479.3635 C 270.3331,478.3961 269.2157,477.428 268.0985,476.4949 379.9528,457.4177 520.206,369.4915 506.778,274.212 498.0906,212.5684 446.2223,202.7064 428.6336,191.9925 430.9316,189.6766 433.1344,187.5342 435.369,185.2877 453.8197,196.416 507.9047,205.9852 517.7594,270.03 532.876,368.2726 387.0074,459.733 271.4182,479.3635"
         style="fill:#e3000f;fill-opacity:1;fill-rule:evenodd;stroke:none"
         id="path60" />
      <path
         d="M 125.5156,262.7546 C 126.1372,247.0229 126.0235,235.7512 134.3069,219.4316 138.422,211.3243 147.3106,206.6326 159.3584,204.319 183.1983,199.7396 207.4654,198.6191 233.6777,209.0208 243.9414,213.0939 240.6387,217.351 234.5128,221.7824 225.0831,228.6028 218.9679,235.6566 214.4716,242.9402 210.7123,249.0293 206.0578,249.5123 198.6055,248.3138 174.1966,244.3884 149.7804,256.2398 137.2737,267.7924 124.8627,279.2568 125.1377,272.31 125.5156,262.7546 Z M 146.8329,342.0125 C 138.4302,326.4225 127.9406,306.0689 127.6268,296.0028 127.4369,289.9222 132.3649,285.5356 137.6473,282.2332 150.6699,274.0915 166.593,265.9388 189.4201,262.7546 200.3961,261.2239 204.8281,263.1821 203.6157,270.1431 201.8693,280.1733 201.5464,289.3788 202.3634,299.3613 202.8756,305.6185 202.3002,308.1781 193.1777,309.1003 173.8959,311.0505 159.9296,322.0313 154.7657,338.3184 152.9714,343.9766 149.0255,346.0816 146.8329,342.0125 Z M 194.6347,397.5653 C 182.2626,387.4039 173.8888,378.6069 166.2778,367.6467 161.2312,361.4692 161.113,359.6409 163.5026,354.1759 169.579,340.2811 181.1271,326.0509 196.4761,318.4736 201.7848,315.8532 207.5309,314.2633 209.4517,323.3645 211.4731,332.9391 215.4719,340.4443 224.9433,351.2917 230.1367,358.4673 222.7462,360.9264 218.3145,363.3352 208.2203,368.8203 208.9695,380.4593 207.8926,390.456 206.7766,400.8214 199.9383,401.921 194.6347,397.5653 Z"
         style="fill:#005ca9;fill-opacity:1;fill-rule:evenodd;stroke:#ffed00;stroke-width:2.126;stroke-linecap:butt;stroke-linejoin:miter;stroke-miterlimit:22.9256;stroke-dasharray:none;stroke-opacity:1"
         id="path62" />
      <path
         d="M 583.1459,262.7546 C 582.5242,247.0229 582.6379,235.7512 574.3545,219.4316 570.2394,211.3243 561.3508,206.6326 549.303,204.319 525.4631,199.7396 501.196,198.6191 474.9837,209.0208 464.72,213.0939 468.0227,217.351 474.1486,221.7824 483.5784,228.6028 489.6935,235.6566 494.1899,242.9402 497.9492,249.0293 502.6037,249.5123 510.0559,248.3138 534.4648,244.3884 558.881,256.2398 571.3877,267.7924 583.7987,279.2568 583.5237,272.31 583.1459,262.7546 Z M 561.8285,342.0125 C 570.2312,326.4225 580.7208,306.0689 581.0346,296.0028 581.2245,289.9222 576.2965,285.5356 571.0141,282.2332 557.9915,274.0915 542.0684,265.9388 519.2413,262.7546 508.2653,261.2239 503.8333,263.1821 505.0457,270.1431 506.7921,280.1733 507.115,289.3788 506.298,299.3613 505.7858,305.6185 506.3613,308.1781 515.4837,309.1003 534.7655,311.0505 548.7318,322.0313 553.8957,338.3184 555.69,343.9766 559.6359,346.0816 561.8285,342.0125 Z M 514.0267,397.5653 C 526.3988,387.4039 534.7726,378.6069 542.3837,367.6467 547.4302,361.4692 547.5484,359.6409 545.1588,354.1759 539.0824,340.2811 527.5344,326.0509 512.1853,318.4736 506.8766,315.8532 501.1305,314.2633 499.2097,323.3645 497.1883,332.9391 493.1895,340.4443 483.7181,351.2917 478.5248,358.4673 485.9152,360.9264 490.3469,363.3352 500.4411,368.8203 499.6919,380.4593 500.7688,390.456 501.8848,400.8214 508.7231,401.921 514.0267,397.5653 Z"
         style="fill:#005ca9;fill-opacity:1;fill-rule:evenodd;stroke:#ffed00;stroke-width:2.126;stroke-linecap:butt;stroke-linejoin:miter;stroke-miterlimit:22.9256;stroke-dasharray:none;stroke-opacity:1"
         id="path64" />
      <g
         id="g66"
         transform="scale(0.7521,0.90611)">
        <path
           d="M 349.7683,207.9054 C 337.4348,204.838 326.0203,210.5504 312.7683,215.0306 295.7224,220.7928 279.197,219.0521 266.5179,213.7805 L 252.095,158.902 C 243.4737,126.0995 298.3377,123.5514 330.7671,151.2816 338.0207,142.0418 351.6372,133.5597 369.642,133.2819 387.6228,133.0041 397.3292,138.9966 401.7665,151.907 L 405.8918,163.9071 Z"
           style="fill:#0063a1;fill-opacity:1;fill-rule:evenodd;stroke:#ffed00;stroke-width:2.126;stroke-linecap:round;stroke-linejoin:round;stroke-miterlimit:22.9256;stroke-dasharray:none;stroke-opacity:1"
           id="path68" />
      </g>
      <g
         id="g70"
         transform="scale(-0.7521,0.90611)">
        <path
           d="M -592.469,207.9054 C -604.8026,204.838 -616.2171,210.5504 -629.4691,215.0306 -646.5149,220.7928 -663.0403,219.0521 -675.7194,213.7805 L -690.1424,158.902 C -698.7637,126.0995 -643.8997,123.5514 -611.4702,151.2816 -604.2163,142.0418 -590.6001,133.5597 -572.5953,133.2819 -554.6146,133.0041 -544.9082,138.9966 -540.4708,151.907 L -536.3456,163.9071 Z"
           style="fill:#0063a1;fill-opacity:1;fill-rule:evenodd;stroke:#ffed00;stroke-width:2.126;stroke-linecap:round;stroke-linejoin:round;stroke-miterlimit:22.9256;stroke-dasharray:none;stroke-opacity:1"
           id="path72" />
      </g>
      <g
         id="g74"
         transform="scale(0.7521,0.90611)">
        <path
           d="M 339.0163,178.7204 C 337.4257,170.0929 343.0239,166.2248 361.7663,165.4707 375.7527,164.9078 391.4246,161.1955 391.2664,149.8456 391.1338,140.33 378.6857,139.4906 366.641,138.9705 350.2222,138.2618 339.7844,148.9524 327.5161,159.5957 315.7843,169.7726 300.2771,174.0025 282.1414,175.0955 266.167,176.0584 256.7466,170.1669 251.8274,157.8039"
           style="fill:none;stroke:#ffed00;stroke-width:2.126;stroke-linecap:round;stroke-linejoin:round;stroke-miterlimit:22.9256;stroke-dasharray:none;stroke-opacity:1"
           id="path76" />
      </g>
      <g
         id="g78"
         transform="scale(-0.7521,0.90611)">
        <path
           d="M -603.2211,178.7204 C -604.8116,170.0929 -599.2135,166.2248 -580.4711,165.4707 -566.4847,164.9078 -550.8128,161.1955 -550.9709,149.8456 -551.1036,140.33 -563.5517,139.4906 -575.5963,138.9705 -592.0152,138.2618 -602.4529,148.9524 -614.7213,159.5957 -626.453,169.7726 -641.9602,174.0025 -660.096,175.0955 -676.0704,176.0584 -685.4907,170.1669 -690.41,157.8039"
           style="fill:none;stroke:#ffed00;stroke-width:2.126;stroke-linecap:round;stroke-linejoin:round;stroke-miterlimit:22.9256;stroke-dasharray:none;stroke-opacity:1"
           id="path80" />
      </g>
      <g
         id="g82"
         transform="scale(0.7521,0.90611)">
        <path
           d="M 330.7671,151.2816 C 314.9413,163.9936 298.4888,170.2911 281.5787,170.3463 265.9912,170.3968 257.6443,162.7089 257.5786,151.721 257.5295,143.5575 264.2856,136.3368 280.5792,136.2209 297.8515,136.0987 313.7085,142.1609 327.3089,153.9505 328.5176,153.1165 331.9118,150.3621 330.7671,151.2816 Z"
           style="fill:#0063a1;fill-opacity:1;fill-rule:evenodd;stroke:#ffed00;stroke-width:2.126;stroke-linecap:round;stroke-linejoin:round;stroke-miterlimit:22.9256;stroke-dasharray:none;stroke-opacity:1"
           id="path84" />
      </g>
      <g
         id="g86"
         transform="scale(-0.7521,0.90611)">
        <path
           d="M -611.4702,151.2816 C -627.296,163.9936 -643.7486,170.2911 -660.6587,170.3463 -676.2461,170.3968 -684.593,162.7089 -684.6588,151.721 -684.7078,143.5575 -677.9517,136.3368 -661.6582,136.2209 -644.3858,136.0987 -628.5288,142.1609 -614.9285,153.9505 -613.7198,153.1165 -610.3256,150.3621 -611.4702,151.2816 Z"
           style="fill:#0063a1;fill-opacity:1;fill-rule:evenodd;stroke:#ffed00;stroke-width:2.126;stroke-linecap:round;stroke-linejoin:round;stroke-miterlimit:22.9256;stroke-dasharray:none;stroke-opacity:1"
           id="path88" />
      </g>
      <g
         id="g90"
         transform="scale(0.7521,0.90611)">
        <path
           d="M 351.4856,181.8621 C 343.6682,180.0896 343.0902,174.3089 348.067,170.8883 350.9895,168.8805 355.8475,168.5305 362.111,168.6121 364.1808,168.6393 366.1824,168.5854 368.1096,168.4559 386.6114,167.2109 398.3519,158.9516 400.0431,147.7681"
           style="fill:none;stroke:#ffed00;stroke-width:2.126;stroke-linecap:round;stroke-linejoin:round;stroke-miterlimit:22.9256;stroke-dasharray:none;stroke-opacity:1"
           id="path92" />
      </g>
      <g
         id="g94"
         transform="scale(-0.7521,0.90611)">
        <path
           d="M -590.7518,181.8621 C -598.5692,180.0896 -599.1471,174.3089 -594.1704,170.8883 -591.2478,168.8805 -586.3898,168.5305 -580.1264,168.6121 -578.0565,168.6393 -576.055,168.5854 -574.1277,168.4559 -555.626,167.2109 -543.8854,158.9516 -542.1943,147.7681"
           style="fill:none;stroke:#ffed00;stroke-width:2.126;stroke-linecap:round;stroke-linejoin:round;stroke-miterlimit:22.9256;stroke-dasharray:none;stroke-opacity:1"
           id="path96" />
      </g>
      <g
         id="g98"
         transform="scale(0.7521,0.90611)">
        <path
           d="M 471.1187,154.9264 C 439.7014,154.9264 409.1443,157.0207 380.6736,173.4265 366.5628,181.5574 352.902,184.879 339.0163,178.7204 L 359.6737,239.1766 C 366.9012,247.1564 376.1878,244.8162 387.6738,240.9267 415.0777,231.647 443.2946,229.1766 471.1187,229.1766 498.9424,229.1766 527.1596,231.647 554.5636,240.9267 566.0495,244.8162 575.3361,247.1564 582.5636,239.1766 L 603.2211,178.7204 C 589.335,184.879 575.6746,181.5574 561.5637,173.4265 533.0931,157.0207 502.5359,154.9264 471.1187,154.9264 Z"
           style="fill:#0063a1;fill-opacity:1;fill-rule:evenodd;stroke:#ffed00;stroke-width:2.126;stroke-linecap:round;stroke-linejoin:round;stroke-miterlimit:22.9256;stroke-dasharray:none;stroke-opacity:1"
           id="path100" />
      </g>
      <path
         d="M 416.753,182.1495 C 416.7884,184.8538 416.8063,187.5515 416.7706,190.2351 416.7351,192.9056 416.6819,195.5758 416.6461,198.2463 416.753,198.2665 416.8417,198.3005 416.9307,198.3277 418.0694,196.0313 419.1945,193.7443 420.3468,191.4446 421.4894,189.1647 422.6598,186.8854 423.834,184.6159 421.4854,183.8208 419.1191,183.0056 416.753,182.1495 Z M 416.4681,162.4311 C 416.5393,165.6584 416.5926,168.8658 416.6461,172.0661 420.5602,173.5339 424.4389,174.9266 428.2999,176.2109 429.7232,173.5744 431.1641,170.9515 432.5876,168.3289 436.1281,169.3006 439.6686,170.1771 443.2626,170.8903 441.11,174.4036 438.9874,177.878 436.911,181.3952 434.8599,184.8696 432.896,188.3582 430.933,191.7981 428.9644,195.2478 427.0354,198.6871 425.1149,202.1462 423.2103,205.5767 421.3786,209.0296 419.5638,212.4811 415.7388,211.3058 411.8958,210.1028 408.0351,208.914 407.9639,204.8168 407.8831,200.6787 407.7502,196.5339 407.6164,192.3557 407.4469,188.149 407.2521,183.9229 407.0557,179.6559 406.7884,175.3546 406.5225,171.0536 406.2549,166.7188 405.8821,162.3495 405.5618,157.9533 409.2092,159.4346 412.8386,160.943 416.4681,162.4311 Z M 356.4405,200.4205 C 356.4405,196.0174 356.432,191.6008 356.4405,187.2048 356.449,182.795 356.4578,178.3851 356.4578,173.982 356.4578,169.5725 356.4493,165.1691 356.4578,160.7596 356.466,156.3568 356.4578,151.9466 356.4746,147.5439 360.0009,147.6388 363.5609,147.7409 367.1042,148.0192 367.0191,150.5676 366.925,153.1352 366.8315,155.677 366.738,158.2248 366.6444,160.78 366.5588,163.3416 366.4743,165.8897 366.4054,168.4443 366.3034,170.9926 366.2011,173.5469 366.116,176.1089 366.031,178.6637 366.1333,178.6706 366.2014,178.6774 366.3034,178.6774 367.0529,176.1973 367.8395,173.7252 368.6204,171.2713 369.4065,168.7992 370.2325,166.3551 371.039,163.9463 371.8505,161.5238 372.7185,159.1112 373.5604,156.7168 374.4048,154.3141 375.2977,151.9262 376.2006,149.5346 378.2957,149.9083 380.357,150.3298 382.4864,150.7575 382.9632,153.3399 383.4901,155.9699 383.9513,158.5783 384.4103,161.1746 384.8786,163.7793 385.3142,166.3583 385.7471,168.9225 386.2174,171.5085 386.6085,174.0705 387.0009,176.6387 387.4093,179.2208 387.8011,181.7824 387.8694,181.8031 387.9717,181.8232 388.0908,181.8505 388.3632,179.4249 388.5948,176.9842 388.8746,174.5731 389.1569,172.1395 389.4282,169.7136 389.6918,167.2963 389.956,164.8757 390.2627,162.4496 390.5439,160.0257 390.8245,157.6052 391.089,155.181 391.3784,152.7554 394.7003,153.8427 398.022,155.0384 401.3096,156.3021 400.6964,160.3585 400.1179,164.4151 399.5209,168.4715 398.9254,172.5211 398.3284,176.5845 397.7323,180.6341 397.1361,184.6834 396.4966,188.742 395.9099,192.7899 395.3214,196.8483 394.717,200.903 394.1209,204.9661 390.5439,204.0965 386.9325,203.3152 383.3042,202.6355 382.9122,200.1146 382.5125,197.6029 382.1117,195.0868 381.7117,192.5745 381.291,190.0321 380.8511,187.5039 380.4055,184.9431 379.8969,182.3939 379.4202,179.8526 378.9434,177.3116 378.4153,174.7636 377.9382,172.2087 377.7508,172.1815 377.6145,172.1611 377.4784,172.1339 376.5926,174.4645 375.7037,176.7934 374.872,179.1462 374.0343,181.5157 373.2086,183.9127 372.3849,186.3009 371.5566,188.7029 370.7422,191.1013 369.966,193.5102 369.1922,195.9117 368.4158,198.3481 367.6493,200.7805 363.9356,200.5971 360.1882,200.4817 356.4405,200.4205 Z M 288.902,164.0752 C 293.5616,162.2925 298.2609,160.4409 302.9604,158.5619 301.0405,163.7079 299.1677,168.7606 297.4411,173.749 295.7482,178.6394 294.1415,183.4818 292.6616,188.2276 295.9611,191.031 299.2989,193.8155 302.5205,196.7272 305.7177,199.6174 308.8395,202.6344 311.959,205.708 307.8598,206.8897 303.8202,208.0902 299.8006,209.3105 297.3609,207.0113 294.9009,204.747 292.4014,202.4906 289.9018,200.2348 287.3424,197.9802 284.7623,195.7329 284.8025,195.7314 284.8224,195.7173 284.8626,195.7093 285.7022,198.4771 286.5441,201.2511 287.4022,204.012 288.2639,206.7849 289.122,209.5461 289.9619,212.3206 286.8622,213.2481 283.7826,214.1552 280.7031,215.0351 279.4232,211.3498 278.1408,207.6715 276.8632,203.999 275.5814,200.3142 274.3024,196.6419 273.0237,192.9696 271.743,189.2914 270.4363,185.6154 269.1643,181.9338 267.8967,178.2649 266.6047,174.5765 265.3449,170.9039 269.0444,170.1213 272.7439,169.2232 276.4434,168.2436 277.3636,171.2197 278.2726,174.1793 279.1834,177.1517 280.0922,180.1182 280.9627,183.0923 281.8828,186.0678 281.8828,186.0678 281.8828,186.0678 281.8828,186.0678 282.9226,182.4902 284.0545,178.8928 285.2025,175.2744 286.374,171.5811 287.6221,167.864 288.902,164.0752 Z M 352.0378,200.4205 C 352.0378,196.0174 352.046,191.6008 352.0378,187.2048 352.0293,182.795 352.0205,178.3851 352.0205,173.982 352.0205,169.5725 352.029,165.1691 352.0205,160.7596 352.0123,156.3568 352.0205,151.9466 352.0037,147.5439 348.4774,147.6388 344.9174,147.7409 341.3741,148.0192 341.4591,150.5676 341.5533,153.1352 341.6468,155.677 341.7403,158.2248 341.8339,160.78 341.9192,163.3416 342.004,165.8897 342.0729,168.4443 342.1746,170.9926 342.2769,173.5469 342.3623,176.1089 342.4473,178.6637 342.345,178.6706 342.2769,178.6774 342.1746,178.6774 341.4254,176.1973 340.6388,173.7252 339.8579,171.2713 339.0718,168.7992 338.2458,166.3551 337.4393,163.9463 336.6278,161.5238 335.7598,159.1112 334.9179,156.7168 334.0732,154.3141 333.1806,151.9262 332.2777,149.5346 330.1826,149.9083 328.121,150.3298 325.9916,150.7575 325.5151,153.3399 324.9882,155.9699 324.527,158.5783 324.068,161.1746 323.5997,163.7793 323.1641,166.3583 322.7312,168.9225 322.2609,171.5085 321.8695,174.0705 321.4774,176.6387 321.069,179.2208 320.6772,181.7824 320.6089,181.8031 320.5066,181.8232 320.3875,181.8505 320.1151,179.4249 319.8835,176.9842 319.6037,174.5731 319.3214,172.1395 319.0501,169.7136 318.7865,167.2963 318.5223,164.8757 318.2156,162.4496 317.9344,160.0257 317.6538,157.6052 317.3893,155.181 317.0999,152.7554 313.778,153.8427 310.4563,155.0384 307.1687,156.3021 307.7819,160.3585 308.3604,164.4151 308.9574,168.4715 309.5529,172.5211 310.1499,176.5845 310.746,180.6341 311.3422,184.6834 311.9817,188.742 312.5684,192.7899 313.1566,196.8483 313.7613,200.903 314.3574,204.9661 317.9344,204.0965 321.5458,203.3152 325.1741,202.6355 325.5659,200.1146 325.9658,197.6029 326.3666,195.0868 326.7666,192.5745 327.187,190.0321 327.6272,187.5039 328.0728,184.9431 328.5814,182.3939 329.0581,179.8526 329.5349,177.3116 330.063,174.7636 330.5401,172.2087 330.7275,172.1815 330.8638,172.1611 330.9999,172.1339 331.8857,174.4645 332.7746,176.7934 333.6063,179.1462 334.444,181.5157 335.2697,183.9127 336.0934,186.3009 336.9217,188.7029 337.7361,191.1013 338.5123,193.5102 339.2861,195.9117 340.0625,198.3481 340.829,200.7805 344.5427,200.5971 348.2901,200.4817 352.0378,200.4205"
         style="fill:#ffffff;fill-opacity:1;fill-rule:nonzero;stroke:none"
         id="path102" />
    </g>
  </g>
</svg>
