<svg xmlns="http://www.w3.org/2000/svg" viewBox="0 0 512 384">
<rect width="512" height="384" fill="none"/>
<rect width="336.3" height="153.7" fill="#808080" x="-129.4" y="229.3" transform="matrix(0.71188194 -0.70229915 0.70229915 0.71188194 0 0)"/>
<circle fill="#000" cx="-52.1" cy="305.1" r="61.4" transform="matrix(0.71188194 -0.70229915 0.70229915 0.71188194 0 0)"/>
<rect width="151" height="11.4" x="33.8" y="246" transform="matrix(0.71188194 -0.70229915 0.70229915 0.71188194 0 0)" />
<rect width="151" height="11.4" x="33.7" y="267.3" transform="matrix(0.71188194 -0.70229915 0.70229915 0.71188194 0 0)" />
<rect width="151" height="11.4" x="33.7" y="288.4" transform="matrix(0.71188194 -0.70229915 0.70229915 0.71188194 0 0)" />
<rect width="89.6" height="11.4" x="33.8" y="311.4" transform="matrix(0.71188194 -0.70229915 0.70229915 0.71188194 0 0)" />
<path fill="#808080" d="m 161.62147,294.23796 c 0,-3.27352 0.46218,-3.97849 4.66598,-7.11691 l 4.66599,-3.48348 V 271.0575 c 0,-8.91558 -0.31508,-12.58006 -1.08164,-12.58006 -0.92179,0 -30.97163,9.37399 -34.97715,10.91104 -1.12465,0.43158 -1.32286,-0.37074 -1.08873,-4.40696 l 0.28623,-4.93459 18.19734,-11.37079 18.19735,-11.37079 0.4666,-14.69545 c 0.44594,-14.04469 0.56415,-14.77432 2.66967,-16.47667 2.8028,-2.26612 5.85581,-2.26612 8.65861,0 2.10552,1.70235 2.22374,2.43198 2.66968,16.47667 l 0.46659,14.69545 18.19735,11.37079 18.19734,11.37079 0.28623,4.93459 c 0.21819,3.76123 -0.004,4.8237 -0.93319,4.46822 -3.84373,-1.47003 -34.30497,-10.9723 -35.17371,-10.9723 -0.71389,0 -1.04061,3.94972 -1.04061,12.58006 v 12.58007 l 4.66598,3.48348 c 4.2038,3.13842 4.66599,3.84339 4.66599,7.11691 0,3.07725 -0.24999,3.53742 -1.6331,3.00618 -0.8982,-0.345 -4.56238,-1.43927 -8.14263,-2.43171 -6.43279,-1.78315 -6.58682,-1.78319 -13.06476,-0.003 -3.60537,0.99089 -7.29012,2.08514 -8.18832,2.43171 -1.38359,0.53382 -1.63309,0.0749 -1.63309,-3.00335 z"/>
</svg>